<svg xmlns="http://www.w3.org/2000/svg" width="1000" height="520" viewBox="0 0 1000 520" role="img">
  <defs>
    <style>
      .bg { fill: #0d1117; }
      .box { fill: #161b22; stroke: #58a6ff; stroke-width: 2; rx: 12; }
      .box2 { fill: #102030; stroke: #2ea043; stroke-width: 2; rx: 12; }
      .box3 { fill: #241a0f; stroke: #d29922; stroke-width: 2; rx: 12; }
      .txt { fill: #c9d1d9; font-family: Arial, sans-serif; font-size: 15px; }
      .small { fill: #8b949e; font-family: Arial, sans-serif; font-size: 12px; }
      .title { fill: #f0f6fc; font-family: Arial, sans-serif; font-size: 20px; font-weight: bold; }
      .arrow { stroke: #8b949e; stroke-width: 2.2; fill: none; marker-end: url(#arrow); }
      .line { stroke: #30363d; stroke-width: 1; }
    </style>
    <marker id="arrow" markerWidth="10" markerHeight="10" refX="8" refY="3" orient="auto" markerUnits="strokeWidth">
      <path d="M0,0 L0,6 L9,3 z" fill="#8b949e" />
    </marker>
  </defs>
  <rect class="bg" x="0" y="0" width="1000" height="520" rx="16"/>
<text class="title" x="500.0" y="40" text-anchor="middle">Fluxo de build: kernel + overlays</text><rect class="box" x="60" y="210" width="180" height="70" rx="12"/>
<text class="txt" x="150.0" y="237.0" text-anchor="middle">IDE</text>
<text class="txt" x="150.0" y="254.0" text-anchor="middle">Compilador C</text>
<rect class="box2" x="320" y="100" width="190" height="70" rx="12"/>
<text class="txt" x="415.0" y="127.0" text-anchor="middle">Compilação</text>
<text class="txt" x="415.0" y="144.0" text-anchor="middle">do kernel</text>
<rect class="box2" x="320" y="280" width="190" height="70" rx="12"/>
<text class="txt" x="415.0" y="307.0" text-anchor="middle">Compilação</text>
<text class="txt" x="415.0" y="324.0" text-anchor="middle">dos overlays</text>
<rect class="box3" x="570" y="280" width="190" height="70" rx="12"/>
<text class="txt" x="665.0" y="307.0" text-anchor="middle">Detecção</text>
<text class="txt" x="665.0" y="324.0" text-anchor="middle">de syscalls</text>
<rect class="box3" x="570" y="100" width="190" height="70" rx="12"/>
<text class="txt" x="665.0" y="127.0" text-anchor="middle">Kernel</text>
<text class="txt" x="665.0" y="144.0" text-anchor="middle">seletivo</text>
<rect class="box" x="810" y="190" width="150" height="70" rx="12"/>
<text class="txt" x="885.0" y="217.0" text-anchor="middle">ASM final</text>
<text class="txt" x="885.0" y="234.0" text-anchor="middle">monolítico</text>
<rect class="box2" x="810" y="370" width="150" height="70" rx="12"/>
<text class="txt" x="885.0" y="405.0" text-anchor="middle">Simulação</text>
<rect class="box2" x="80" y="70" width="130" height="45" rx="12"/>
<text class="txt" x="145.0" y="92.5" text-anchor="middle">SO kernel</text>
<rect class="box2" x="80" y="360" width="130" height="45" rx="12"/>
<text class="txt" x="145.0" y="382.5" text-anchor="middle">SO user</text>
<rect class="box2" x="80" y="420" width="130" height="45" rx="12"/>
<text class="txt" x="145.0" y="442.5" text-anchor="middle">SO apps</text>
<path class="arrow" d="M240,245 L320,135"/>
<path class="arrow" d="M240,245 L320,315"/>
<path class="arrow" d="M510,315 L570,315"/>
<path class="arrow" d="M665,280 L665,170"/>
<path class="arrow" d="M510,135 L810,225"/>
<path class="arrow" d="M760,135 L810,225"/>
<path class="arrow" d="M760,315 L810,225"/>
<path class="arrow" d="M885,260 L885,370"/>
<path class="arrow" d="M210,92 L320,135"/>
<path class="arrow" d="M210,382 L320,315"/>
<path class="arrow" d="M210,442 L320,315"/>
</svg>
