<svg xmlns="http://www.w3.org/2000/svg" width="1000" height="380" viewBox="0 0 1000 380" role="img">
  <defs>
    <style>
      .bg { fill: #0d1117; }
      .box { fill: #161b22; stroke: #58a6ff; stroke-width: 2; rx: 12; }
      .box2 { fill: #102030; stroke: #2ea043; stroke-width: 2; rx: 12; }
      .box3 { fill: #241a0f; stroke: #d29922; stroke-width: 2; rx: 12; }
      .txt { fill: #c9d1d9; font-family: Arial, sans-serif; font-size: 15px; }
      .small { fill: #8b949e; font-family: Arial, sans-serif; font-size: 12px; }
      .title { fill: #f0f6fc; font-family: Arial, sans-serif; font-size: 20px; font-weight: bold; }
      .arrow { stroke: #8b949e; stroke-width: 2.2; fill: none; marker-end: url(#arrow); }
      .line { stroke: #30363d; stroke-width: 1; }
    </style>
    <marker id="arrow" markerWidth="10" markerHeight="10" refX="8" refY="3" orient="auto" markerUnits="strokeWidth">
      <path d="M0,0 L0,6 L9,3 z" fill="#8b949e" />
    </marker>
  </defs>
  <rect class="bg" x="0" y="0" width="1000" height="380" rx="16"/>
<text class="title" x="500.0" y="38" text-anchor="middle">Mapa lógico de memória</text><rect class="box" x="70" y="90" width="220" height="70" rx="12"/>
<text class="txt" x="180.0" y="117.0" text-anchor="middle">Data e globais</text>
<text class="txt" x="180.0" y="134.0" text-anchor="middle">.data</text>
<rect class="box" x="70" y="230" width="220" height="70" rx="12"/>
<text class="txt" x="180.0" y="257.0" text-anchor="middle">Heap do kernel</text>
<text class="txt" x="180.0" y="274.0" text-anchor="middle">malloc/free</text>
<rect class="box3" x="430" y="70" width="220" height="60" rx="12"/>
<text class="txt" x="540.0" y="92.0" text-anchor="middle">DS privado</text>
<text class="txt" x="540.0" y="109.0" text-anchor="middle">processo spawn</text>
<rect class="box3" x="430" y="150" width="220" height="60" rx="12"/>
<text class="txt" x="540.0" y="172.0" text-anchor="middle">DS compartilhado</text>
<text class="txt" x="540.0" y="189.0" text-anchor="middle">thread</text>
<rect class="box2" x="430" y="230" width="220" height="60" rx="12"/>
<text class="txt" x="540.0" y="252.0" text-anchor="middle">Pilha</text>
<text class="txt" x="540.0" y="269.0" text-anchor="middle">processo</text>
<rect class="box2" x="430" y="310" width="220" height="60" rx="12"/>
<text class="txt" x="540.0" y="332.0" text-anchor="middle">Pilha</text>
<text class="txt" x="540.0" y="349.0" text-anchor="middle">thread</text>
<rect class="box" x="740" y="270" width="190" height="60" rx="12"/>
<text class="txt" x="835.0" y="292.0" text-anchor="middle">Memória</text>
<text class="txt" x="835.0" y="309.0" text-anchor="middle">compartilhada</text>
<path class="arrow" d="M290,125 L430,100"/>
<path class="arrow" d="M290,125 L430,180"/>
<path class="arrow" d="M290,265 L430,260"/>
<path class="arrow" d="M290,265 L430,340"/>
<path class="arrow" d="M290,265 L740,300"/>
</svg>
