<svg xmlns="http://www.w3.org/2000/svg" width="1000" height="420" viewBox="0 0 1000 420" role="img">
  <defs>
    <style>
      .bg { fill: #0d1117; }
      .box { fill: #161b22; stroke: #58a6ff; stroke-width: 2; rx: 12; }
      .box2 { fill: #102030; stroke: #2ea043; stroke-width: 2; rx: 12; }
      .box3 { fill: #241a0f; stroke: #d29922; stroke-width: 2; rx: 12; }
      .txt { fill: #c9d1d9; font-family: Arial, sans-serif; font-size: 15px; }
      .small { fill: #8b949e; font-family: Arial, sans-serif; font-size: 12px; }
      .title { fill: #f0f6fc; font-family: Arial, sans-serif; font-size: 20px; font-weight: bold; }
      .arrow { stroke: #8b949e; stroke-width: 2.2; fill: none; marker-end: url(#arrow); }
      .line { stroke: #30363d; stroke-width: 1; }
    </style>
    <marker id="arrow" markerWidth="10" markerHeight="10" refX="8" refY="3" orient="auto" markerUnits="strokeWidth">
      <path d="M0,0 L0,6 L9,3 z" fill="#8b949e" />
    </marker>
  </defs>
  <rect class="bg" x="0" y="0" width="1000" height="420" rx="16"/>
<text class="title" x="500.0" y="38" text-anchor="middle">Criação de processo com spawn()</text><rect class="box" x="40" y="170" width="120" height="60" rx="12"/>
<text class="txt" x="100.0" y="192.0" text-anchor="middle">Pai</text>
<text class="txt" x="100.0" y="209.0" text-anchor="middle">RUNNING</text>
<rect class="box3" x="205" y="170" width="130" height="60" rx="12"/>
<text class="txt" x="270.0" y="200.0" text-anchor="middle">spawn()</text>
<rect class="box2" x="380" y="80" width="145" height="60" rx="12"/>
<text class="txt" x="452.5" y="102.0" text-anchor="middle">Procura</text>
<text class="txt" x="452.5" y="119.0" text-anchor="middle">PCB livre</text>
<rect class="box2" x="380" y="170" width="145" height="60" rx="12"/>
<text class="txt" x="452.5" y="192.0" text-anchor="middle">Aloca</text>
<text class="txt" x="452.5" y="209.0" text-anchor="middle">pilha</text>
<rect class="box2" x="380" y="260" width="145" height="60" rx="12"/>
<text class="txt" x="452.5" y="282.0" text-anchor="middle">Aloca</text>
<text class="txt" x="452.5" y="299.0" text-anchor="middle">data privada</text>
<rect class="box3" x="590" y="170" width="145" height="60" rx="12"/>
<text class="txt" x="662.5" y="192.0" text-anchor="middle">Copia data</text>
<text class="txt" x="662.5" y="209.0" text-anchor="middle">do pai</text>
<rect class="box" x="790" y="80" width="145" height="60" rx="12"/>
<text class="txt" x="862.5" y="102.0" text-anchor="middle">CS</text>
<text class="txt" x="862.5" y="119.0" text-anchor="middle">compartilhado</text>
<rect class="box3" x="790" y="170" width="145" height="60" rx="12"/>
<text class="txt" x="862.5" y="192.0" text-anchor="middle">DS</text>
<text class="txt" x="862.5" y="209.0" text-anchor="middle">privado</text>
<rect class="box2" x="790" y="260" width="145" height="60" rx="12"/>
<text class="txt" x="862.5" y="282.0" text-anchor="middle">SP</text>
<text class="txt" x="862.5" y="299.0" text-anchor="middle">próprio</text>
<path class="arrow" d="M160,200 L205,200"/>
<path class="arrow" d="M335,200 L380,110"/>
<path class="arrow" d="M335,200 L380,200"/>
<path class="arrow" d="M335,200 L380,290"/>
<path class="arrow" d="M525,290 L590,200"/>
<path class="arrow" d="M735,200 L790,110"/>
<path class="arrow" d="M735,200 L790,200"/>
<path class="arrow" d="M735,200 L790,290"/>
<text class="small" x="860" y="365" text-anchor="middle">Filho entra em READY com dados isolados</text></svg>
